{"accessors":[{"bufferView":0,"componentType":5126,"count":24,"max":[0.5,0.375,0.5],"min":[-0.5,-0.375,-0.5],"normalized":false,"type":"VEC3"},{"bufferView":1,"componentType":5126,"count":24,"max":[1.0,0.0,1.0,1.0],"min":[-1.0,-1.5259254723787308e-05,-1.0,1.0],"normalized":false,"type":"VEC4"},{"bufferView":2,"componentType":5126,"count":24,"max":[1.0,1.0,1.0],"min":[-1.0,-1.0,-1.0],"normalized":false,"type":"VEC3"},{"bufferView":3,"componentType":5126,"count":24,"max":[1.0,1.0],"min":[0.0,0.0],"normalized":false,"type":"VEC2"},{"bufferView":4,"componentType":5121,"count":36,"max":[23],"min":[0],"normalized":false,"type":"SCALAR"},{"bufferView":5,"componentType":5126,"count":24,"max":[0.5,0.125,0.5],"min":[-0.5,-0.125,-0.5],"normalized":false,"type":"VEC3"}],"asset":{"generator":"Godot Engine v4.7.2.stable.flathub@ed1daf0bf001b61586d9930840f2f1394092c079","version":"2.0"},"bufferViews":[{"buffer":0,"byteLength":288,"byteStride":12,"target":34962},{"buffer":0,"byteLength":384,"byteOffset":288,"byteStride":16,"target":34962},{"buffer":0,"byteLength":288,"byteOffset":672,"byteStride":12,"target":34962},{"buffer":0,"byteLength":192,"byteOffset":960,"byteStride":8,"target":34962},{"buffer":0,"byteLength":36,"byteOffset":1152,"target":34963},{"buffer":0,"byteLength":288,"byteOffset":1188,"byteStride":12,"target":34962}],"buffers":[{"byteLength":1476,"uri":"grass0.bin"}],"extensionsUsed":["GODOT_single_root"],"materials":[{"pbrMetallicRoughness":{"baseColorFactor":[0.23247556388378143,0.15393364429473877,0.026259999722242355,1.0],"metallicFactor":0.0,"roughnessFactor":1.0}},{"pbrMetallicRoughness":{"baseColorFactor":[0.0,0.30054378509521484,0.0,1.0],"metallicFactor":0.0,"roughnessFactor":1.0}}],"meshes":[{"primitives":[{"attributes":{"NORMAL":2,"POSITION":0,"TANGENT":1,"TEXCOORD_0":3},"indices":4,"material":0,"mode":4}]},{"primitives":[{"attributes":{"NORMAL":2,"POSITION":5,"TANGENT":1,"TEXCOORD_0":3},"indices":4,"material":1,"mode":4}]}],"nodes":[{"children":[1,2],"name":"Blocks"},{"mesh":0,"name":"MeshInstance3D","translation":[0.0,-0.12396240234375,0.0]},{"mesh":1,"name":"MeshInstance3D2","translation":[0.0,0.375,0.0]}],"scene":0,"scenes":[{"nodes":[0]}]}